<svg width="1200" height="630" viewBox="0 0 1200 630" fill="none" xmlns="http://www.w3.org/2000/svg">
  <path d="M356.028 341.939C345.53 335.465 353.929 288.049 365.302 292.598C375.625 296.797 369.326 350.163 356.028 341.939ZM378.249 330.741C379.999 338.965 382.624 345.263 386.998 348.063C401.695 357.861 425.316 357.686 433.539 307.295C429.165 301.172 420.417 303.271 420.242 303.971C419.017 310.795 413.768 333.191 406.769 339.14C396.796 347.888 396.446 313.769 397.671 295.573C425.841 284.55 439.663 251.306 434.064 224.886C427.94 195.316 393.647 198.815 383.848 224.886C376.5 244.132 375.8 268.278 375.8 292.598C372.475 281.05 360.753 277.551 351.304 279.126C332.233 282.1 322.085 342.114 341.331 352.087C352.704 358.036 372.126 357.686 377.725 327.242C377.899 328.466 378.074 329.691 378.249 330.741ZM397.671 284.025C398.546 276.151 400.12 210.888 412.718 214.737C420.592 217.187 421.641 268.278 397.671 284.025Z" class="logo" />
  <path d="M463.283 355.937C447.536 367.31 434.063 379.033 430.739 396.529C428.989 405.978 431.264 414.901 437.038 420.85C447.186 431.173 463.983 427.674 472.381 412.276C477.28 403.353 481.654 389.181 483.404 361.011C501.251 348.938 517.523 323.393 521.722 307.296C517.523 301.347 508.075 303.446 507.725 304.146C503.35 316.569 495.127 330.916 484.104 342.464C484.629 330.566 487.428 291.724 486.553 282.1C485.854 275.102 464.333 278.076 464.508 283.675V284.55C463.458 295.573 462.058 331.616 455.934 340.54C452.785 345.264 447.011 344.914 445.611 338.965C442.287 325.842 444.736 285.95 444.211 280.351C443.686 272.652 419.191 270.203 419.366 288.924C419.541 300.472 416.916 333.366 427.589 346.489C438.262 359.611 458.559 355.587 463.983 343.339C463.808 350.338 463.458 352.787 463.283 355.937ZM449.46 416.651C441.237 418.925 436.513 390.231 462.583 372.209C460.658 403.353 454.359 415.426 449.46 416.651Z" class="logo" />
  <path d="M508.828 283.325C508.303 283.5 507.078 315.169 510.053 332.491C512.852 349.288 529.649 348.763 530.874 345.088C531.049 345.263 531.049 345.088 531.049 344.913C531.224 336.165 538.397 300.297 542.947 292.773C547.496 285.424 551.345 286.299 550.82 294.873C549.945 313.244 539.797 349.813 563.943 352.962C585.114 355.761 592.113 341.239 599.986 309.395C595.787 303.271 587.913 302.396 587.738 303.271C587.038 306.596 579.69 339.489 572.691 341.064C564.293 342.989 571.466 311.145 572.866 293.473C573.916 278.251 558.694 272.477 546.446 276.851C541.197 278.601 535.248 284.899 531.399 295.398C531.224 290.323 531.224 286.649 531.224 285.599C530.524 278.776 516.526 280.35 508.828 283.325Z" class="logo" />
  <path d="M630.27 320.768C631.495 353.137 680.486 352.087 684.335 305.546C679.961 299.422 670.337 301.347 670.337 302.221C670.162 313.594 661.764 340.889 653.016 331.266C646.717 324.267 652.141 277.901 651.791 274.576C651.091 267.578 629.22 268.628 629.395 274.227L629.92 290.499C629.395 274.227 615.397 269.502 604.549 271.252C585.478 274.227 575.33 334.066 594.576 344.039C606.299 350.163 624.846 349.113 630.27 320.768ZM609.274 333.891C598.776 327.417 607.174 280 618.547 284.725C628.87 288.924 622.571 342.114 609.274 333.891Z" class="logo" />
  <path d="M689.187 403.702C687.962 381.306 685.687 342.289 690.061 321.292C692.686 308.345 697.585 293.648 704.059 293.997C713.332 294.347 714.207 315.169 710.183 331.791C692.511 342.464 693.736 356.636 701.084 362.585C715.082 373.783 726.98 350.687 730.304 339.314C745.351 334.94 761.623 319.718 765.123 310.094C766.697 305.895 754.45 300.996 753.925 302.046C750.775 309.045 741.502 319.193 733.803 322.342C735.203 308.87 733.453 295.397 728.204 287.174C722.78 278.6 708.608 275.451 699.685 281.575C695.135 284.724 691.111 289.623 688.487 295.572C688.662 289.973 688.837 285.599 689.012 282.8C689.711 275.451 674.489 277.376 666.791 280.35C666.266 280.525 665.916 383.931 668.89 402.478C670.99 415.775 690.411 424.873 689.187 403.702Z" class="logo" />
  <path d="M797.674 303.271C796.799 307.296 787.351 347.013 778.777 337.39C772.478 330.391 777.027 289.624 776.678 286.474C775.978 279.476 754.282 280.351 754.282 285.95C754.107 293.823 753.407 321.468 757.081 335.64C763.205 360.311 800.298 361.711 808.522 309.22C804.322 303.271 797.849 302.397 797.674 303.271ZM765.305 245.532C757.431 248.157 752.357 256.38 753.757 264.079C755.331 271.602 762.855 275.801 770.729 273.177C778.602 270.552 783.851 262.154 782.277 254.63C780.877 246.932 773.178 242.907 765.305 245.532Z" class="logo" />
  <path d="M855.342 303.271C853.067 310.62 845.543 335.815 835.045 342.989C812.824 358.211 814.224 281.75 824.722 283.85C827.697 284.55 830.846 288.574 830.671 295.573C830.671 301.522 841.169 298.547 841.169 293.823C841.169 265.828 807.925 265.303 798.127 288.574C790.253 307.121 790.253 338.79 805.301 351.737C815.099 359.786 835.045 358.561 844.843 351.388C853.942 344.914 861.64 332.141 868.464 309.745C864.79 303.271 855.517 302.572 855.342 303.271Z" class="logo" />
  <style>
    .logo { fill: #FD7E14; }
    @media (prefers-color-scheme: dark) {
      .logo { fill: #E8590C; }
    }
  </style>
</svg>
