<svg width="48" height="48" viewBox="0 0 48 48" fill="none" xmlns="http://www.w3.org/2000/svg">
  <path fill-rule="evenodd" clip-rule="evenodd" d="M8 0C3.58172 0 0 3.58172 0 8V40C0 44.4183 3.58172 48 8 48H40C44.4183 48 48 44.4183 48 40V8C48 3.58172 44.4183 0 40 0H8ZM18.5775 35.2278C16.6575 34.0438 18.1935 25.3718 20.2735 26.2038C22.1615 26.9718 21.0095 36.7318 18.5775 35.2278ZM24.2415 36.3478C23.4415 35.8358 22.9615 34.6838 22.6415 33.1798C22.6095 32.9878 22.5775 32.7638 22.5455 32.5398C21.5215 38.1078 17.9695 38.1718 15.8895 37.0838C12.3695 35.2598 14.2255 24.2838 17.7135 23.7398C19.4415 23.4518 21.5855 24.0918 22.1935 26.2038C22.1935 21.7558 22.3215 17.3398 23.6655 13.8198C25.4575 9.05177 31.7295 8.41177 32.8495 13.8198C33.8735 18.6518 31.3455 24.7318 26.1935 26.7478C25.9695 30.0758 26.0335 36.3158 27.8575 34.7158C29.1375 33.6278 30.0975 29.5318 30.3215 28.2838C30.3535 28.1558 31.9535 27.7718 32.7535 28.8918C31.2495 38.1078 26.9295 38.1398 24.2415 36.3478ZM26.2816 23.3394C26.2449 23.9588 26.2177 24.4177 26.1935 24.6358C30.5775 21.7558 30.3855 12.4118 28.9455 11.9638C26.9905 11.3664 26.487 19.87 26.2816 23.3394Z" class="logo" />
  <style>
    .logo { fill: #FD7E14; }
    @media (prefers-color-scheme: dark) {
      .logo { fill: #E8590C; }
    }
  </style>
</svg>
